<svg version="1.1" id="Layer_1" xmlns="http://www.w3.org/2000/svg" xmlns:xlink="http://www.w3.org/1999/xlink" x="0px" y="0px"
	 width="100%" viewBox="0 0 2560 898" enable-background="new 0 0 2560 898" xml:space="preserve">
<path fill="#020202" opacity="1.000000" stroke="none" 
	d="
M1381.980225,643.974976 
	C1375.104370,635.552307 1374.109497,625.739380 1374.069824,615.873840 
	C1373.908936,575.876221 1373.981079,535.877625 1373.978271,495.879425 
	C1373.973511,428.549011 1373.977173,361.218567 1373.977173,293.888153 
	C1373.977173,292.073944 1373.977051,290.259705 1373.977051,288.304871 
	C1394.987305,283.648682 1415.831299,281.130463 1437.063110,284.239624 
	C1457.098633,287.173676 1466.806641,299.270599 1468.962158,319.843140 
	C1469.567627,325.622833 1469.380371,331.496002 1469.385498,337.326447 
	C1469.424561,381.490875 1469.420898,425.655334 1469.430420,469.819763 
	C1469.430786,471.442871 1469.430542,473.065979 1469.430542,475.459717 
	C1475.725586,469.224304 1481.525513,463.632996 1487.155762,457.875732 
	C1512.660767,431.795105 1538.107788,405.657837 1563.625488,379.589630 
	C1564.706421,378.485382 1566.286011,377.124451 1567.626587,377.131744 
	C1586.064819,377.231720 1603.076294,381.360992 1617.508179,393.893829 
	C1633.319580,407.624664 1634.276733,431.106750 1622.727295,447.226288 
	C1613.884644,459.567902 1602.382935,469.166168 1591.062622,478.984985 
	C1577.476196,490.769226 1563.864990,502.524902 1549.411621,515.030884 
	C1556.547729,521.932861 1563.634521,528.624512 1570.541138,535.497253 
	C1592.624756,557.472900 1614.681152,579.476562 1636.596313,601.619690 
	C1638.077148,603.115906 1639.377563,606.122437 1638.923096,607.975769 
	C1636.762207,616.789307 1634.962646,625.909973 1631.179810,634.060608 
	C1623.911011,649.722107 1610.638794,657.479919 1593.518433,658.831665 
	C1574.810669,660.308716 1557.813354,655.846497 1544.810181,641.984619 
	C1531.510254,627.806213 1519.162598,612.713562 1506.748291,597.730957 
	C1494.441406,582.878052 1482.571045,567.663513 1469.636475,551.518127 
	C1469.636475,586.275391 1469.636475,619.734253 1469.636475,653.423706 
	C1446.476807,658.227112 1423.770020,660.493530 1400.866943,655.943481 
	C1393.340210,654.448242 1387.051270,650.344788 1381.980225,643.974976 
z"/>
<path fill="#2090FE" opacity="1.000000" stroke="none" 
	d="
M2150.139648,404.127716 
	C2172.244385,386.928589 2197.009277,377.162903 2224.405518,374.050049 
	C2247.414795,371.435608 2270.359375,371.995361 2292.748291,378.235474 
	C2332.987305,389.450897 2363.860107,412.667358 2381.216797,451.383301 
	C2400.062988,493.421844 2400.202881,536.830750 2384.261230,579.299866 
	C2367.588135,623.717041 2333.480713,649.258362 2287.363037,659.108337 
	C2264.300781,664.034058 2241.023193,664.554810 2217.875244,660.811401 
	C2190.628174,656.405090 2165.823486,645.934387 2144.919922,627.358093 
	C2126.070312,610.607239 2114.008057,589.517151 2107.323242,565.544739 
	C2097.888672,531.710693 2098.278320,497.773010 2109.150391,464.214630 
	C2116.884033,440.343811 2130.431641,420.322815 2150.139648,404.127716 
M2294.218994,546.681396 
	C2298.614258,525.168335 2298.913330,503.683533 2292.595703,482.520874 
	C2288.832520,469.914917 2282.022949,458.937347 2269.989502,452.654266 
	C2248.464600,441.415314 2217.216797,445.667572 2205.315674,477.395844 
	C2195.162354,504.463898 2195.604736,532.314819 2205.713623,559.437256 
	C2217.865723,592.042969 2256.947998,594.533508 2275.340088,579.671936 
	C2285.604980,571.377686 2290.938965,560.038452 2294.218994,546.681396 
z"/>
<path fill="#020202" opacity="1.000000" stroke="none" 
	d="
M913.955383,623.043945 
	C894.285156,602.472900 882.326050,578.221802 877.690735,550.725952 
	C870.952698,510.757446 874.519348,472.094025 895.845581,436.481079 
	C911.429688,410.456848 934.188416,392.956696 962.389771,382.647156 
	C997.906555,369.663269 1034.441528,368.614685 1070.311157,379.358643 
	C1120.637085,394.432709 1152.972534,428.194519 1164.739868,479.907104 
	C1172.328369,513.255981 1170.561768,546.595459 1158.490112,578.688904 
	C1145.679443,612.747437 1121.810181,636.799744 1088.160156,650.891052 
	C1061.770264,661.942017 1034.060547,664.413696 1005.890381,662.448914 
	C982.742676,660.834351 960.607422,654.852112 940.642517,642.785583 
	C931.310486,637.145508 922.976257,629.854492 913.955383,623.043945 
M1068.898926,543.253174 
	C1069.568604,531.311340 1070.912964,519.358887 1070.725342,507.430573 
	C1070.522827,494.564026 1067.719604,482.034546 1061.266479,470.595551 
	C1052.791626,455.572632 1040.048462,447.523926 1022.730591,447.258484 
	C1005.301270,446.991272 991.954895,454.317108 982.982666,469.385925 
	C975.341736,482.218811 973.036804,496.434326 972.544922,511.009766 
	C971.905640,529.950867 973.365845,548.543091 982.497803,565.792664 
	C997.222412,593.606689 1043.243286,597.560181 1059.739502,567.166138 
	C1063.650269,559.960571 1065.814819,551.807312 1068.898926,543.253174 
z"/>
<path fill="#020202" opacity="1.000000" stroke="none" 
	d="
M842.249146,282.714600 
	C867.618225,294.048737 870.949463,332.064728 851.202332,352.111572 
	C849.787903,353.547394 846.348755,353.907990 844.108704,353.465210 
	C826.932068,350.069794 809.708008,346.544220 792.140137,348.472168 
	C783.342346,349.437683 774.494141,351.573822 766.136780,354.511841 
	C755.578674,358.223480 750.222168,366.944489 749.290405,377.828796 
	C748.614075,385.729889 749.158325,393.735474 749.158325,401.994080 
	C779.686340,401.994080 810.119629,401.994080 840.730896,401.994080 
	C849.548645,420.224640 854.250977,438.718445 846.784119,458.381317 
	C842.779480,468.927002 834.263428,474.559753 823.374512,474.919525 
	C802.402039,475.612396 781.397888,475.348969 760.406921,475.478851 
	C758.423645,475.491119 756.440308,475.480499 754.059875,475.480499 
	C754.059875,534.807983 754.059875,593.908386 754.059875,653.989319 
	C745.334778,655.208374 736.870972,657.214905 728.369141,657.391235 
	C714.614868,657.676331 700.664307,657.965088 687.110840,656.040222 
	C670.587646,653.693604 660.670532,641.503967 659.075317,624.913452 
	C658.581970,619.782104 658.330139,614.607361 658.326599,609.452271 
	C658.274841,534.464661 658.233154,459.477051 658.313782,384.489563 
	C658.334290,365.386322 660.378540,346.617676 669.526733,329.316895 
	C683.323242,303.225586 705.105896,286.922180 733.094604,279.243988 
	C765.094360,270.465424 797.490051,269.886993 829.821472,277.998779 
	C833.972107,279.040131 837.889465,281.010803 842.249146,282.714600 
z"/>
<path fill="#020202" opacity="1.000000" stroke="none" 
	d="
M1706.362549,575.703979 
	C1732.249634,588.386292 1759.234619,593.623047 1787.520752,590.827515 
	C1793.930664,590.193970 1800.638428,588.048401 1806.256470,584.899231 
	C1816.967041,578.895508 1816.357178,564.593994 1804.987305,560.089478 
	C1794.589722,555.970215 1783.459351,553.499817 1772.478027,551.097961 
	C1752.165039,546.655029 1732.147461,541.683594 1713.305298,532.409424 
	C1680.132202,516.081543 1668.943970,487.241333 1671.549072,454.318970 
	C1674.191040,420.933075 1693.228027,399.235229 1722.889648,385.894653 
	C1750.427612,373.509369 1779.609985,370.292603 1809.251587,372.716461 
	C1825.201172,374.020660 1841.116699,377.378479 1856.678589,381.280670 
	C1869.619385,384.525665 1880.637207,391.859833 1888.497437,403.197418 
	C1899.590210,419.197388 1894.945068,446.113159 1879.557617,459.549805 
	C1878.682373,460.313995 1876.542236,460.394592 1875.345337,459.912720 
	C1849.943237,449.685272 1823.722168,443.303589 1796.205811,444.347870 
	C1788.568848,444.637726 1780.914307,446.991028 1773.473999,449.118591 
	C1767.678467,450.775818 1764.353760,455.369537 1764.413086,461.478058 
	C1764.468750,467.218872 1767.947144,471.406097 1773.155151,473.124146 
	C1782.273315,476.131866 1791.560425,478.723877 1800.913696,480.902222 
	C1821.328857,485.656921 1841.595581,490.807373 1860.454590,500.260590 
	C1882.973755,511.548248 1900.378662,527.519836 1905.905273,553.205383 
	C1916.008667,600.161499 1891.369995,640.996216 1845.350220,655.010925 
	C1815.836060,663.999084 1785.766235,664.701721 1755.393433,662.341187 
	C1738.057251,660.993835 1721.010254,657.947266 1705.128906,650.721558 
	C1692.010864,644.753113 1680.867432,636.179077 1675.414673,622.010742 
	C1668.754395,604.704773 1674.975342,581.927002 1689.682495,570.570251 
	C1690.847534,569.670654 1693.331787,569.582886 1694.803833,570.151550 
	C1698.661133,571.641541 1702.297363,573.703918 1706.362549,575.703979 
z"/>
<path fill="#6B6B6B" opacity="1.000000" stroke="none" 
	d="
M201.330978,281.994080 
	C201.327057,262.167847 201.265091,242.840164 201.364838,223.513336 
	C201.386230,219.371094 201.746994,215.193024 202.392395,211.101028 
	C203.207870,205.930801 206.530838,202.786316 211.674240,202.007034 
	C215.774261,201.385880 219.947968,200.947021 224.089066,200.946228 
	C293.900360,200.932968 363.712860,200.799255 433.522156,201.200500 
	C449.927826,201.294785 466.466187,200.930695 482.689209,204.897064 
	C509.136871,211.363251 530.703735,225.223709 546.669434,247.203293 
	C569.154236,278.157532 575.122986,312.180847 564.029724,348.967834 
	C563.218262,351.658783 562.066101,354.286377 560.763245,356.782043 
	C557.561157,362.915558 551.897461,363.823212 546.883667,358.961548 
	C540.324707,352.601685 534.324524,345.598785 527.349976,339.747314 
	C509.062592,324.404785 487.592957,316.528748 463.907257,314.701355 
	C456.384918,314.121033 451.729370,317.691925 450.649200,325.288818 
	C448.441254,340.817169 444.994934,342.044220 429.723755,342.197357 
	C405.566986,342.439575 381.406067,342.281128 357.246918,342.259521 
	C354.584229,342.257141 351.914215,342.129944 349.260620,341.905914 
	C342.419067,341.328339 338.223328,337.479767 337.058807,330.814758 
	C336.687012,328.686829 336.213348,326.562286 336.046021,324.415955 
	C335.636597,319.162567 332.452698,316.235107 327.770111,315.033386 
	C324.754822,314.259552 321.510010,314.140259 318.367767,314.137726 
	C286.712006,314.112152 255.056168,314.187012 223.400345,314.201111 
	C204.859329,314.209381 201.501221,310.885132 201.326813,292.489838 
	C201.295227,289.157867 201.327805,285.825287 201.330978,281.994080 
z"/>
<path fill="#020202" opacity="1.000000" stroke="none" 
	d="
M1268.274902,658.353455 
	C1260.227905,657.596313 1252.501465,657.481689 1245.050415,655.990540 
	C1229.609131,652.900269 1219.543335,641.221863 1218.038086,625.492126 
	C1217.499878,619.865967 1217.198730,614.194153 1217.196167,608.543030 
	C1217.146729,503.250092 1217.158936,397.957153 1217.158203,292.664215 
	C1217.158203,291.179932 1217.158203,289.695648 1217.158203,287.904175 
	C1236.037231,284.484985 1254.717529,281.395782 1273.817749,283.517761 
	C1277.945557,283.976410 1282.115601,284.424286 1286.136597,285.407562 
	C1300.455444,288.909119 1310.137817,300.720947 1311.946289,316.750366 
	C1312.449219,321.209595 1312.788818,325.714691 1312.790771,330.198944 
	C1312.836670,436.491486 1312.826294,542.784058 1312.826172,649.076599 
	C1312.826172,650.388489 1312.826172,651.700317 1312.826172,653.374756 
	C1298.143311,656.628113 1283.542847,658.407776 1268.274902,658.353455 
z"/>
<path fill="#1DACFD" opacity="1.000000" stroke="none" 
	d="
M1956.335693,408.000061 
	C1956.335938,400.188995 1956.335938,392.877930 1956.335938,384.192688 
	C1971.266724,382.800659 1985.919678,381.184692 2000.614746,380.189209 
	C2006.378296,379.798767 2012.252441,380.630798 2018.047852,381.195496 
	C2036.868530,383.029205 2048.490723,394.187744 2050.995117,412.909760 
	C2051.632812,417.675018 2051.926758,422.521423 2051.931152,427.330963 
	C2051.997803,500.979004 2051.949951,574.627197 2052.104004,648.274963 
	C2052.113037,652.551880 2050.681885,654.049255 2046.699463,654.724792 
	C2027.079468,658.052612 2007.447998,659.562866 1987.579346,657.009888 
	C1970.801147,654.853821 1958.197754,641.368286 1956.994385,623.417725 
	C1956.571533,617.109131 1956.366943,610.774170 1956.362671,604.451050 
	C1956.318359,539.134033 1956.335449,473.817047 1956.335693,408.000061 
z"/>
<path fill="#04A8FE" opacity="1.000000" stroke="none" 
	d="
M450.712433,530.458374 
	C435.843170,527.904358 422.892120,522.059265 411.894135,512.432312 
	C396.901611,499.308716 388.106659,482.794434 386.159241,462.802032 
	C383.901154,439.620850 390.780914,419.275757 406.554718,402.474915 
	C418.838043,389.391724 434.386230,381.672852 452.439392,379.345520 
	C490.768982,374.404205 526.423523,400.300720 535.200378,435.535156 
	C542.959351,466.683136 531.795532,499.245880 504.308258,517.817505 
	C488.011688,528.828247 470.261902,532.147339 450.712433,530.458374 
z"/>
<path fill="#1075FD" opacity="1.000000" stroke="none" 
	d="
M237.912292,574.902222 
	C261.683289,559.182495 295.080170,559.725220 318.923035,575.445679 
	C338.287933,588.213623 349.935059,605.784363 353.175568,628.639038 
	C356.688690,653.416260 349.595642,675.275146 332.043884,692.926270 
	C316.357330,708.701660 297.053406,716.078613 274.314911,715.148621 
	C255.085815,714.362122 238.971024,706.977905 225.404739,694.298218 
	C211.875778,681.653442 204.171463,665.633179 202.499893,646.878174 
	C200.462891,624.022888 207.208115,604.136902 222.614578,587.359009 
	C226.935760,582.653137 232.582245,579.164246 237.912292,574.902222 
z"/>
<path fill="#1EACFC" opacity="1.000000" stroke="none" 
	d="
M1977.808594,260.773804 
	C1995.977539,251.076340 2026.528076,252.842422 2043.316528,270.514496 
	C2068.042236,296.541382 2056.025879,343.665100 2021.470459,353.401947 
	C2011.358276,356.251312 2001.069702,356.774170 1990.905273,354.428223 
	C1968.552979,349.269318 1955.375366,334.419281 1952.293945,311.688934 
	C1949.430908,290.569855 1959.152954,270.966309 1977.808594,260.773804 
z"/>
<path fill="#0B89FD" opacity="1.000000" stroke="none" 
	d="
M353.030945,511.002441 
	C354.560425,523.506592 348.875000,530.163818 336.838318,531.750793 
	C331.923828,532.398743 326.862976,531.975830 321.868744,531.972717 
	C288.403931,531.952087 254.938843,531.965149 221.474701,531.797729 
	C218.243668,531.781616 215.018433,530.610168 212.027039,529.565552 
	C217.339661,529.770081 222.418564,530.931519 227.491302,530.905151 
	C251.918839,530.778259 276.344757,530.336182 300.770844,529.977661 
	C301.708221,529.963867 302.641296,529.657959 303.552612,529.492432 
	C302.756195,520.353882 300.284760,517.350098 292.692993,514.608765 
	C290.563507,513.839844 287.814606,511.831390 287.361908,509.915985 
	C285.881165,503.650299 282.457794,500.200867 276.315613,498.366089 
	C274.158386,497.721680 272.381042,494.776733 271.082642,492.508759 
	C268.668640,488.291931 268.170227,482.729797 261.191589,482.641205 
	C259.161469,482.615417 255.901596,479.970032 255.394562,477.970398 
	C253.822983,471.772369 250.548630,468.189636 244.369370,466.403259 
	C242.273819,465.797485 240.090134,463.115295 239.275970,460.894623 
	C236.589813,453.568207 232.214188,449.636627 224.799149,448.996368 
	C221.549301,448.715729 219.208786,447.829956 218.830154,443.802277 
	C218.558304,440.910431 217.428482,437.930481 215.985733,435.383972 
	C215.185333,433.971191 212.956726,433.367584 211.371857,432.399231 
	C210.581284,433.846924 209.636993,435.235565 209.050751,436.761749 
	C208.613312,437.900543 208.638504,439.217010 208.457687,440.454376 
	C207.894470,440.398773 207.331253,440.343201 206.768036,440.287598 
	C206.768036,428.025024 206.768036,415.762451 206.768036,403.499878 
	C206.213089,403.433624 205.658142,403.367371 205.103195,403.301086 
	C204.735870,404.865692 204.076569,406.425629 204.051331,407.995728 
	C203.936356,415.151398 204.101562,422.312592 203.917343,429.465363 
	C203.877899,430.996826 202.804108,432.501648 202.206802,434.018738 
	C202.258316,420.891235 201.783508,407.733337 202.538254,394.646393 
	C203.081284,385.230713 208.838669,380.335327 218.390900,380.031036 
	C232.024216,379.596619 245.674454,379.693634 259.399841,380.077515 
	C256.898438,381.059723 254.323273,381.866364 251.729340,381.931946 
	C244.407486,382.117035 237.071976,381.818909 229.753510,382.062042 
	C224.908752,382.222992 220.084076,382.988129 215.250412,383.482788 
	C215.125076,383.907043 214.999756,384.331299 214.874435,384.755554 
	C215.964233,385.460205 217.114517,386.845428 218.133636,386.754883 
	C223.273254,386.298157 224.343719,389.184082 224.318100,393.404449 
	C224.310242,394.699402 224.438812,396.197113 225.084381,397.244934 
	C225.964294,398.673096 227.194534,400.195038 228.649582,400.879028 
	C230.377106,401.691162 232.495728,401.708069 234.457489,401.977631 
	C238.744034,402.566772 240.990158,404.985321 239.727142,408.924927 
	C238.160248,413.812439 240.512451,416.420135 243.901596,418.981781 
	C245.851227,420.455353 247.772980,422.021637 249.446182,423.792816 
	C252.491058,427.015961 254.750305,431.454834 258.393921,433.541840 
	C266.403137,438.129395 269.758606,447.860016 278.796143,451.107635 
	C279.713013,451.437134 280.156647,453.234344 280.708160,454.403198 
	C282.906799,459.062988 285.029358,463.451721 290.221008,466.012573 
	C294.533905,468.139954 299.770325,470.946899 301.659241,474.868256 
	C304.897278,481.590302 311.704346,483.689545 315.859833,488.854584 
	C316.826691,490.056305 318.483856,491.246277 318.561157,492.518311 
	C318.795135,496.368469 321.587646,497.341156 324.288757,498.600494 
	C329.586823,501.070740 333.700775,504.764587 335.608704,510.393127 
	C336.676910,513.544434 337.528137,516.110107 341.794800,514.359741 
	C342.733459,513.974670 344.367432,515.284546 345.681213,515.813904 
	C345.204102,516.957581 344.934143,518.260742 344.203766,519.209473 
	C342.952942,520.834167 341.414093,522.237122 339.738342,524.005310 
	C346.515503,525.809692 347.953400,525.013123 349.690521,519.602905 
	C350.629028,516.679932 351.906433,513.865723 353.030945,511.002441 
z"/>
<path fill="#0694FE" opacity="1.000000" stroke="none" 
	d="
M353.139404,510.652252 
	C351.906433,513.865723 350.629028,516.679932 349.690521,519.602905 
	C347.953400,525.013123 346.515503,525.809692 339.738342,524.005310 
	C341.414093,522.237122 342.952942,520.834167 344.203766,519.209473 
	C344.934143,518.260742 345.204102,516.957581 345.681213,515.813904 
	C344.367432,515.284546 342.733459,513.974670 341.794800,514.359741 
	C337.528137,516.110107 336.676910,513.544434 335.608704,510.393127 
	C333.700775,504.764587 329.586823,501.070740 324.288757,498.600494 
	C321.587646,497.341156 318.795135,496.368469 318.561157,492.518311 
	C318.483856,491.246277 316.826691,490.056305 315.859833,488.854584 
	C311.704346,483.689545 304.897278,481.590302 301.659241,474.868256 
	C299.770325,470.946899 294.533905,468.139954 290.221008,466.012573 
	C285.029358,463.451721 282.906799,459.062988 280.708160,454.403198 
	C280.156647,453.234344 279.713013,451.437134 278.796143,451.107635 
	C269.758606,447.860016 266.403137,438.129395 258.393921,433.541840 
	C254.750305,431.454834 252.491058,427.015961 249.446182,423.792816 
	C247.772980,422.021637 245.851227,420.455353 243.901596,418.981781 
	C240.512451,416.420135 238.160248,413.812439 239.727142,408.924927 
	C240.990158,404.985321 238.744034,402.566772 234.457489,401.977631 
	C232.495728,401.708069 230.377106,401.691162 228.649582,400.879028 
	C227.194534,400.195038 225.964294,398.673096 225.084381,397.244934 
	C224.438812,396.197113 224.310242,394.699402 224.318100,393.404449 
	C224.343719,389.184082 223.273254,386.298157 218.133636,386.754883 
	C217.114517,386.845428 215.964233,385.460205 214.874435,384.755554 
	C214.999756,384.331299 215.125076,383.907043 215.250412,383.482788 
	C220.084076,382.988129 224.908752,382.222992 229.753510,382.062042 
	C237.071976,381.818909 244.407486,382.117035 251.729340,381.931946 
	C254.323273,381.866364 256.898438,381.059723 259.734924,380.305481 
	C262.703064,379.935730 265.418488,379.851929 268.567139,380.296936 
	C270.059357,384.569489 271.330383,388.268402 272.133728,392.066162 
	C273.870331,400.275848 273.770844,400.304535 282.123108,401.840820 
	C282.934448,401.990082 283.999298,401.663483 284.562103,402.078735 
	C285.830292,403.014465 287.239471,404.095886 287.882904,405.453674 
	C288.632935,407.036438 288.937439,408.985596 288.888977,410.760834 
	C288.769012,415.155609 290.617462,416.758087 295.072083,417.171448 
	C303.790649,417.980377 303.764160,418.292725 304.961823,427.095123 
	C305.028748,427.586884 304.792969,428.279724 305.048248,428.559418 
	C306.445435,430.090210 307.732666,431.932098 309.484558,432.867554 
	C311.140503,433.751709 313.329163,433.944733 315.274597,433.911896 
	C318.626923,433.855438 319.773132,435.122070 320.122559,438.558411 
	C321.151215,448.674286 321.346619,448.655365 331.608185,449.987732 
	C331.936401,450.030365 332.401794,449.870544 332.584503,450.040405 
	C333.751404,451.125153 335.239197,452.094635 335.882812,453.452240 
	C336.633087,455.034851 336.967285,456.991211 336.886383,458.758148 
	C336.644287,464.046753 339.480957,465.172211 344.088287,465.064026 
	C351.994568,464.878479 351.860260,465.050079 352.087555,473.149292 
	C352.152496,475.463867 353.272827,477.748779 353.909210,480.047302 
	C353.998260,485.771088 354.087311,491.494904 353.644287,497.714966 
	C353.156738,501.510132 353.201233,504.809021 353.245728,508.107880 
	C353.246429,508.839264 353.247131,509.570679 353.139404,510.652252 
z"/>
<path fill="#0D7BFE" opacity="1.000000" stroke="none" 
	d="
M202.057220,434.465576 
	C202.804108,432.501648 203.877899,430.996826 203.917343,429.465363 
	C204.101562,422.312592 203.936356,415.151398 204.051331,407.995728 
	C204.076569,406.425629 204.735870,404.865692 205.103195,403.301086 
	C205.658142,403.367371 206.213089,403.433624 206.768036,403.499878 
	C206.768036,415.762451 206.768036,428.025024 206.768036,440.287598 
	C207.331253,440.343201 207.894470,440.398773 208.457687,440.454376 
	C208.638504,439.217010 208.613312,437.900543 209.050751,436.761749 
	C209.636993,435.235565 210.581284,433.846924 211.371857,432.399231 
	C212.956726,433.367584 215.185333,433.971191 215.985733,435.383972 
	C217.428482,437.930481 218.558304,440.910431 218.830154,443.802277 
	C219.208786,447.829956 221.549301,448.715729 224.799149,448.996368 
	C232.214188,449.636627 236.589813,453.568207 239.275970,460.894623 
	C240.090134,463.115295 242.273819,465.797485 244.369370,466.403259 
	C250.548630,468.189636 253.822983,471.772369 255.394562,477.970398 
	C255.901596,479.970032 259.161469,482.615417 261.191589,482.641205 
	C268.170227,482.729797 268.668640,488.291931 271.082642,492.508759 
	C272.381042,494.776733 274.158386,497.721680 276.315613,498.366089 
	C282.457794,500.200867 285.881165,503.650299 287.361908,509.915985 
	C287.814606,511.831390 290.563507,513.839844 292.692993,514.608765 
	C300.284760,517.350098 302.756195,520.353882 303.552612,529.492432 
	C302.641296,529.657959 301.708221,529.963867 300.770844,529.977661 
	C276.344757,530.336182 251.918839,530.778259 227.491302,530.905151 
	C222.418564,530.931519 217.339661,529.770081 211.798096,529.251587 
	C211.006973,529.299866 210.681351,529.252625 210.116913,528.694702 
	C209.160446,527.824707 208.442764,527.465332 207.725082,527.106018 
	C207.361145,527.145752 207.096985,527.002014 206.909439,526.079834 
	C206.410110,525.048035 205.933945,524.611328 205.457794,524.174561 
	C205.152603,523.817017 204.847427,523.459534 204.691971,522.531982 
	C204.405319,521.316528 203.968933,520.671082 203.532562,520.025696 
	C203.347641,519.574951 203.162720,519.124207 203.238953,518.181152 
	C203.268951,517.132568 203.037766,516.576355 202.806595,516.020142 
	C202.499649,514.245544 201.929031,512.471558 201.925446,510.696320 
	C201.874527,485.435089 201.900345,460.173737 202.057220,434.465576 
z"/>
<path fill="#05A0FE" opacity="1.000000" stroke="none" 
	d="
M354.142944,479.628235 
	C353.272827,477.748779 352.152496,475.463867 352.087555,473.149292 
	C351.860260,465.050079 351.994568,464.878479 344.088287,465.064026 
	C339.480957,465.172211 336.644287,464.046753 336.886383,458.758148 
	C336.967285,456.991211 336.633087,455.034851 335.882812,453.452240 
	C335.239197,452.094635 333.751404,451.125153 332.584503,450.040405 
	C332.401794,449.870544 331.936401,450.030365 331.608185,449.987732 
	C321.346619,448.655365 321.151215,448.674286 320.122559,438.558411 
	C319.773132,435.122070 318.626923,433.855438 315.274597,433.911896 
	C313.329163,433.944733 311.140503,433.751709 309.484558,432.867554 
	C307.732666,431.932098 306.445435,430.090210 305.048248,428.559418 
	C304.792969,428.279724 305.028748,427.586884 304.961823,427.095123 
	C303.764160,418.292725 303.790649,417.980377 295.072083,417.171448 
	C290.617462,416.758087 288.769012,415.155609 288.888977,410.760834 
	C288.937439,408.985596 288.632935,407.036438 287.882904,405.453674 
	C287.239471,404.095886 285.830292,403.014465 284.562103,402.078735 
	C283.999298,401.663483 282.934448,401.990082 282.123108,401.840820 
	C273.770844,400.304535 273.870331,400.275848 272.133728,392.066162 
	C271.330383,388.268402 270.059357,384.569489 269.001190,380.434143 
	C270.405396,379.942841 271.808777,379.843140 273.907776,380.173065 
	C279.397583,380.409576 284.191742,380.216522 288.985931,380.023438 
	C293.602356,379.821594 298.219025,379.446808 302.835205,379.452515 
	C313.661224,379.465881 324.493835,379.462708 335.311127,379.834564 
	C348.230530,380.278656 353.727386,385.312805 353.958038,398.264008 
	C354.438477,425.239655 354.275330,452.226746 354.142944,479.628235 
z"/>
<path fill="#0B89FD" opacity="1.000000" stroke="none" 
	d="
M353.567474,507.911743 
	C353.201233,504.809021 353.156738,501.510132 353.489868,498.123474 
	C353.874725,501.262299 353.881989,504.488983 353.567474,507.911743 
z"/>
<path fill="#0B89FD" opacity="1.000000" stroke="none" 
	d="
M288.537720,379.887177 
	C284.191742,380.216522 279.397583,380.409576 274.311584,380.310425 
	C278.709686,379.929108 283.399597,379.840027 288.537720,379.887177 
z"/>
<path fill="#0B89FD" opacity="1.000000" stroke="none" 
	d="
M202.640350,516.254944 
	C203.037766,516.576355 203.268951,517.132568 203.308807,517.815430 
	C202.903030,517.457947 202.688568,516.973816 202.640350,516.254944 
z"/>
<path fill="#0B89FD" opacity="1.000000" stroke="none" 
	d="
M203.417023,520.326538 
	C203.968933,520.671082 204.405319,521.316528 204.775681,522.294434 
	C204.240280,521.960388 203.770889,521.293945 203.417023,520.326538 
z"/>
<path fill="#0B89FD" opacity="1.000000" stroke="none" 
	d="
M207.802048,527.420166 
	C208.442764,527.465332 209.160446,527.824707 209.941101,528.506958 
	C209.295731,528.464661 208.587372,528.099487 207.802048,527.420166 
z"/>
<path fill="#0B89FD" opacity="1.000000" stroke="none" 
	d="
M205.503387,524.503784 
	C205.933945,524.611328 206.410110,525.048035 206.888962,525.842041 
	C206.444107,525.743835 205.996552,525.288452 205.503387,524.503784 
z"/>
</svg>